<svg width="256" height="256" viewBox="0 0 256 256" fill="none" xmlns="http://www.w3.org/2000/svg">
<rect width="256" height="256" fill="black"/>
<path fill-rule="evenodd" clip-rule="evenodd" d="M125.899 25V83.237C125.899 108.508 105.239 128.995 79.753 128.995H60.875L79.753 120.675C100.605 120.675 117.509 103.914 117.509 83.237V45.7989L125.899 25ZM111.219 47.4212C71.7558 55.1611 42 89.6721 42 131.074C42 178.171 80.5035 216.35 128 216.35C175.496 216.35 214 178.171 214 131.074C214 89.6715 184.243 55.1603 144.78 47.4209V55.21C179.966 62.8268 206.311 93.8999 206.311 131.074C206.311 173.96 171.25 208.725 128 208.725C84.7503 208.725 49.6894 173.96 49.6894 131.074C49.6894 93.9005 76.0331 62.8277 111.219 55.2103V47.4212ZM125.899 178.909V197.629L117.509 178.909C117.509 158.233 100.605 141.471 79.753 141.471L60.875 133.152H79.753C105.239 133.152 125.899 153.638 125.899 178.909ZM130.097 25V83.237C130.097 108.508 150.757 128.995 176.243 128.995H195.121L176.243 120.675C155.391 120.675 138.487 103.914 138.487 83.237V45.7989L130.097 25ZM130.097 178.91V197.629L138.487 178.91C138.487 158.233 155.391 141.472 176.243 141.472L195.121 133.152H176.243C150.757 133.152 130.097 153.639 130.097 178.91Z" fill="white"/>
</svg>
